<svg xmlns="http://www.w3.org/2000/svg" xmlns:xlink="http://www.w3.org/1999/xlink" id="processonSvg1000" viewBox="19.333333333333336 -288.8333333333334 1599.6666666666665 1266.9999999999998" width="1599.6666666666665" height="1266.9999999999998"><defs id="ProcessOnDefs1001"><marker id="ProcessOnMarker1046" markerUnits="userSpaceOnUse" orient="auto" markerWidth="16.23606797749979" markerHeight="10.550836550532098" viewBox="-1.0 -1.3763819204711736 16.23606797749979 10.550836550532098" refX="-1.0" refY="3.8990363547948754"><path id="ProcessOnPath1047" d="M12.0 3.8990363547948754L0.0 7.798072709589751V0.0Z" stroke="#323232" stroke-width="2.0" fill="#323232" transform="matrix(1.0,0.0,0.0,1.0,0.0,0.0)"/></marker><marker id="ProcessOnMarker1050" markerUnits="userSpaceOnUse" orient="auto" markerWidth="16.23606797749979" markerHeight="10.550836550532098" viewBox="-1.0 -1.3763819204711736 16.23606797749979 10.550836550532098" refX="-1.0" refY="3.8990363547948754"><path id="ProcessOnPath1051" d="M12.0 3.8990363547948754L0.0 7.798072709589751V0.0Z" stroke="#323232" stroke-width="2.0" fill="#323232" transform="matrix(1.0,0.0,0.0,1.0,0.0,0.0)"/></marker><marker id="ProcessOnMarker1054" markerUnits="userSpaceOnUse" orient="auto" markerWidth="16.23606797749979" markerHeight="10.550836550532098" viewBox="-1.0 -1.3763819204711736 16.23606797749979 10.550836550532098" refX="-1.0" refY="3.8990363547948754"><path id="ProcessOnPath1055" d="M12.0 3.8990363547948754L0.0 7.798072709589751V0.0Z" stroke="#323232" stroke-width="2.0" fill="#323232" transform="matrix(1.0,0.0,0.0,1.0,0.0,0.0)"/></marker><marker id="ProcessOnMarker1058" markerUnits="userSpaceOnUse" orient="auto" markerWidth="16.23606797749979" markerHeight="10.550836550532098" viewBox="-1.0 -1.3763819204711736 16.23606797749979 10.550836550532098" refX="-1.0" refY="3.8990363547948754"><path id="ProcessOnPath1059" d="M12.0 3.8990363547948754L0.0 7.798072709589751V0.0Z" stroke="#323232" stroke-width="2.0" fill="#323232" transform="matrix(1.0,0.0,0.0,1.0,0.0,0.0)"/></marker><marker id="ProcessOnMarker1062" markerUnits="userSpaceOnUse" orient="auto" markerWidth="16.23606797749979" markerHeight="10.550836550532098" viewBox="-1.0 -1.3763819204711736 16.23606797749979 10.550836550532098" refX="-1.0" refY="3.8990363547948754"><path id="ProcessOnPath1063" d="M12.0 3.8990363547948754L0.0 7.798072709589751V0.0Z" stroke="#323232" stroke-width="2.0" fill="#323232" transform="matrix(1.0,0.0,0.0,1.0,0.0,0.0)"/></marker><marker id="ProcessOnMarker1081" markerUnits="userSpaceOnUse" orient="auto" markerWidth="16.23606797749979" markerHeight="10.550836550532098" viewBox="-1.0 -1.3763819204711736 16.23606797749979 10.550836550532098" refX="-1.0" refY="3.8990363547948754"><path id="ProcessOnPath1082" d="M12.0 3.8990363547948754L0.0 7.798072709589751V0.0Z" stroke="#323232" stroke-width="2.0" fill="#323232" transform="matrix(1.0,0.0,0.0,1.0,0.0,0.0)"/></marker><marker id="ProcessOnMarker1085" markerUnits="userSpaceOnUse" orient="auto" markerWidth="16.23606797749979" markerHeight="10.550836550532098" viewBox="-1.0 -1.3763819204711736 16.23606797749979 10.550836550532098" refX="-1.0" refY="3.8990363547948754"><path id="ProcessOnPath1086" d="M12.0 3.8990363547948754L0.0 7.798072709589751V0.0Z" stroke="#323232" stroke-width="2.0" fill="#323232" transform="matrix(1.0,0.0,0.0,1.0,0.0,0.0)"/></marker><marker id="ProcessOnMarker1110" markerUnits="userSpaceOnUse" orient="auto" markerWidth="16.23606797749979" markerHeight="10.550836550532098" viewBox="-1.0 -1.3763819204711736 16.23606797749979 10.550836550532098" refX="-1.0" refY="3.8990363547948754"><path id="ProcessOnPath1111" d="M12.0 3.8990363547948754L0.0 7.798072709589751V0.0Z" stroke="#323232" stroke-width="2.0" fill="#323232" transform="matrix(1.0,0.0,0.0,1.0,0.0,0.0)"/></marker><marker id="ProcessOnMarker1114" markerUnits="userSpaceOnUse" orient="auto" markerWidth="16.23606797749979" markerHeight="10.550836550532098" viewBox="-1.0 -1.3763819204711736 16.23606797749979 10.550836550532098" refX="-1.0" refY="3.8990363547948754"><path id="ProcessOnPath1115" d="M12.0 3.8990363547948754L0.0 7.798072709589751V0.0Z" stroke="#323232" stroke-width="2.0" fill="#323232" transform="matrix(1.0,0.0,0.0,1.0,0.0,0.0)"/></marker><marker id="ProcessOnMarker1122" markerUnits="userSpaceOnUse" orient="auto" markerWidth="16.23606797749979" markerHeight="10.550836550532098" viewBox="-1.0 -1.3763819204711736 16.23606797749979 10.550836550532098" refX="-1.0" refY="3.8990363547948754"><path id="ProcessOnPath1123" d="M12.0 3.8990363547948754L0.0 7.798072709589751V0.0Z" stroke="#323232" stroke-width="2.0" fill="#323232" transform="matrix(1.0,0.0,0.0,1.0,0.0,0.0)"/></marker><marker id="ProcessOnMarker1126" markerUnits="userSpaceOnUse" orient="auto" markerWidth="16.23606797749979" markerHeight="10.550836550532098" viewBox="-1.0 -1.3763819204711736 16.23606797749979 10.550836550532098" refX="-1.0" refY="3.8990363547948754"><path id="ProcessOnPath1127" d="M12.0 3.8990363547948754L0.0 7.798072709589751V0.0Z" stroke="#323232" stroke-width="2.0" fill="#323232" transform="matrix(1.0,0.0,0.0,1.0,0.0,0.0)"/></marker><marker id="ProcessOnMarker1130" markerUnits="userSpaceOnUse" orient="auto" markerWidth="16.23606797749979" markerHeight="10.550836550532098" viewBox="-1.0 -1.3763819204711736 16.23606797749979 10.550836550532098" refX="-1.0" refY="3.8990363547948754"><path id="ProcessOnPath1131" d="M12.0 3.8990363547948754L0.0 7.798072709589751V0.0Z" stroke="#323232" stroke-width="2.0" fill="#323232" transform="matrix(1.0,0.0,0.0,1.0,0.0,0.0)"/></marker><marker id="ProcessOnMarker1150" markerUnits="userSpaceOnUse" orient="auto" markerWidth="16.23606797749979" markerHeight="10.550836550532098" viewBox="-1.0 -1.3763819204711736 16.23606797749979 10.550836550532098" refX="-1.0" refY="3.8990363547948754"><path id="ProcessOnPath1151" d="M12.0 3.8990363547948754L0.0 7.798072709589751V0.0Z" stroke="#323232" stroke-width="2.0" fill="#323232" transform="matrix(1.0,0.0,0.0,1.0,0.0,0.0)"/></marker><marker id="ProcessOnMarker1160" markerUnits="userSpaceOnUse" orient="auto" markerWidth="16.23606797749979" markerHeight="10.550836550532098" viewBox="-1.0 -1.3763819204711736 16.23606797749979 10.550836550532098" refX="-1.0" refY="3.8990363547948754"><path id="ProcessOnPath1161" d="M12.0 3.8990363547948754L0.0 7.798072709589751V0.0Z" stroke="#323232" stroke-width="2.0" fill="#323232" transform="matrix(1.0,0.0,0.0,1.0,0.0,0.0)"/></marker><marker id="ProcessOnMarker1169" markerUnits="userSpaceOnUse" orient="auto" markerWidth="16.23606797749979" markerHeight="10.550836550532098" viewBox="-1.0 -1.3763819204711736 16.23606797749979 10.550836550532098" refX="-1.0" refY="3.8990363547948754"><path id="ProcessOnPath1170" d="M12.0 3.8990363547948754L0.0 7.798072709589751V0.0Z" stroke="#323232" stroke-width="2.0" fill="#323232" transform="matrix(1.0,0.0,0.0,1.0,0.0,0.0)"/></marker><marker id="ProcessOnMarker1173" markerUnits="userSpaceOnUse" orient="auto" markerWidth="16.23606797749979" markerHeight="10.550836550532098" viewBox="-1.0 -1.3763819204711736 16.23606797749979 10.550836550532098" refX="-1.0" refY="3.8990363547948754"><path id="ProcessOnPath1174" d="M12.0 3.8990363547948754L0.0 7.798072709589751V0.0Z" stroke="#323232" stroke-width="2.0" fill="#323232" transform="matrix(1.0,0.0,0.0,1.0,0.0,0.0)"/></marker><marker id="ProcessOnMarker1177" markerUnits="userSpaceOnUse" orient="auto" markerWidth="16.23606797749979" markerHeight="10.550836550532098" viewBox="-1.0 -1.3763819204711736 16.23606797749979 10.550836550532098" refX="-1.0" refY="3.8990363547948754"><path id="ProcessOnPath1178" d="M12.0 3.8990363547948754L0.0 7.798072709589751V0.0Z" stroke="#323232" stroke-width="2.0" fill="#323232" transform="matrix(1.0,0.0,0.0,1.0,0.0,0.0)"/></marker><marker id="ProcessOnMarker1181" markerUnits="userSpaceOnUse" orient="auto" markerWidth="16.23606797749979" markerHeight="10.550836550532098" viewBox="-1.0 -1.3763819204711736 16.23606797749979 10.550836550532098" refX="-1.0" refY="3.8990363547948754"><path id="ProcessOnPath1182" d="M12.0 3.8990363547948754L0.0 7.798072709589751V0.0Z" stroke="#323232" stroke-width="2.0" fill="#323232" transform="matrix(1.0,0.0,0.0,1.0,0.0,0.0)"/></marker><marker id="ProcessOnMarker1185" markerUnits="userSpaceOnUse" orient="auto" markerWidth="16.23606797749979" markerHeight="10.550836550532098" viewBox="-1.0 -1.3763819204711736 16.23606797749979 10.550836550532098" refX="-1.0" refY="3.8990363547948754"><path id="ProcessOnPath1186" d="M12.0 3.8990363547948754L0.0 7.798072709589751V0.0Z" stroke="#323232" stroke-width="2.0" fill="#323232" transform="matrix(1.0,0.0,0.0,1.0,0.0,0.0)"/></marker><marker id="ProcessOnMarker1189" markerUnits="userSpaceOnUse" orient="auto" markerWidth="16.23606797749979" markerHeight="10.550836550532098" viewBox="-1.0 -1.3763819204711736 16.23606797749979 10.550836550532098" refX="-1.0" refY="3.8990363547948754"><path id="ProcessOnPath1190" d="M12.0 3.8990363547948754L0.0 7.798072709589751V0.0Z" stroke="#323232" stroke-width="2.0" fill="#323232" transform="matrix(1.0,0.0,0.0,1.0,0.0,0.0)"/></marker><marker id="ProcessOnMarker1201" markerUnits="userSpaceOnUse" orient="auto" markerWidth="16.23606797749979" markerHeight="10.550836550532098" viewBox="-1.0 -1.3763819204711736 16.23606797749979 10.550836550532098" refX="-1.0" refY="3.8990363547948754"><path id="ProcessOnPath1202" d="M12.0 3.8990363547948754L0.0 7.798072709589751V0.0Z" stroke="#323232" stroke-width="2.0" fill="#323232" transform="matrix(1.0,0.0,0.0,1.0,0.0,0.0)"/></marker></defs><g id="ProcessOnG1002"><path id="ProcessOnPath1003" d="M19.333333333333336 -288.8333333333334H1618.9999999999998V978.1666666666663H19.333333333333258V-288.8333333333335Z" fill="none"/><g id="ProcessOnG1004"><g id="ProcessOnG1005" transform="matrix(-1.8369701987210297E-16,-1.0,1.0,-1.8369701987210297E-16,193.9999999999991,658.6666666666664)" opacity="1.0"><path id="ProcessOnPath1006" d="M0.0 0.0L627.9999999999997 0.0L0.0 0.0M0.0 1226.9999999999998L627.9999999999997 1226.9999999999998L0.0 1226.9999999999998Z" stroke="#323232" stroke-width="2.0" stroke-dasharray="none" opacity="1.0" fill="#ffffff"/><path id="ProcessOnPath1007" d="M0.0 0.0L627.9999999999997 0.0L627.9999999999997 1226.9999999999998L0.0 1226.9999999999998L0.0 0.0Z" stroke="none" stroke-width="0.0" stroke-dasharray="none" opacity="1.0" fill="none"/></g><g id="ProcessOnG1008" transform="matrix(1.0,0.0,0.0,1.0,71.0,122.0)" opacity="1.0"><path id="ProcessOnPath1009" d="M16.95 0.0L103.33333333333333 0.0C115.63636363636364 0.0 115.63636363636364 58.0 103.33333333333333 58.0L16.95 58.0C-5.65 58.0 -5.65 0.0 16.95 0.0ZM103.33333333333333 0.0C91.25 0.0 91.25 58.0 103.33333333333333 58.0C91.25 58.0 91.25 0.0 103.33333333333333 0.0" stroke="#323232" stroke-width="2.0" stroke-dasharray="none" opacity="1.0" fill="#ffffff"/><g id="ProcessOnG1010" transform="matrix(1.0,0.0,0.0,1.0,0.0,6.5)"><text id="ProcessOnText1011" fill="#000000" font-size="18" x="44.2" y="18.45" font-family="微软雅黑" font-weight="normal" font-style="normal" text-decoration="none" family="微软雅黑" text-anchor="middle" size="18">影院历史</text><text id="ProcessOnText1012" fill="#000000" font-size="18" x="44.2" y="40.95" font-family="微软雅黑" font-weight="normal" font-style="normal" text-decoration="none" family="微软雅黑" text-anchor="middle" size="18">观影数据</text></g></g><g id="ProcessOnG1013" transform="matrix(1.0,0.0,0.0,1.0,71.0,224.0)" opacity="1.0"><path id="ProcessOnPath1014" d="M16.95 0.0L103.33333333333333 0.0C115.63636363636364 0.0 115.63636363636364 58.0 103.33333333333333 58.0L16.95 58.0C-5.65 58.0 -5.65 0.0 16.95 0.0ZM103.33333333333333 0.0C91.25 0.0 91.25 58.0 103.33333333333333 58.0C91.25 58.0 91.25 0.0 103.33333333333333 0.0" stroke="#323232" stroke-width="2.0" stroke-dasharray="none" opacity="1.0" fill="#ffffff"/><g id="ProcessOnG1015" transform="matrix(1.0,0.0,0.0,1.0,0.0,6.5)"><text id="ProcessOnText1016" fill="#000000" font-size="18" x="44.2" y="18.45" font-family="微软雅黑" font-weight="normal" font-style="normal" text-decoration="none" family="微软雅黑" text-anchor="middle" size="18">影院POI</text><text id="ProcessOnText1017" fill="#000000" font-size="18" x="44.2" y="40.95" font-family="微软雅黑" font-weight="normal" font-style="normal" text-decoration="none" family="微软雅黑" text-anchor="middle" size="18">数据</text></g></g><g id="ProcessOnG1018" transform="matrix(1.0,0.0,0.0,1.0,71.0,331.5)" opacity="1.0"><path id="ProcessOnPath1019" d="M16.95 0.0L103.33333333333333 0.0C115.63636363636364 0.0 115.63636363636364 58.0 103.33333333333333 58.0L16.95 58.0C-5.65 58.0 -5.65 0.0 16.95 0.0ZM103.33333333333333 0.0C91.25 0.0 91.25 58.0 103.33333333333333 58.0C91.25 58.0 91.25 0.0 103.33333333333333 0.0" stroke="#323232" stroke-width="2.0" stroke-dasharray="none" opacity="1.0" fill="#ffffff"/><g id="ProcessOnG1020" transform="matrix(1.0,0.0,0.0,1.0,0.0,6.5)"><text id="ProcessOnText1021" fill="#000000" font-size="18" x="44.2" y="18.45" font-family="微软雅黑" font-weight="normal" font-style="normal" text-decoration="none" family="微软雅黑" text-anchor="middle" size="18">电影</text><text id="ProcessOnText1022" fill="#000000" font-size="18" x="44.2" y="40.95" font-family="微软雅黑" font-weight="normal" font-style="normal" text-decoration="none" family="微软雅黑" text-anchor="middle" size="18">内容数据</text></g></g><g id="ProcessOnG1023" transform="matrix(1.0,0.0,0.0,1.0,71.0,445.0)" opacity="1.0"><path id="ProcessOnPath1024" d="M16.95 0.0L103.33333333333333 0.0C115.63636363636364 0.0 115.63636363636364 58.0 103.33333333333333 58.0L16.95 58.0C-5.65 58.0 -5.65 0.0 16.95 0.0ZM103.33333333333333 0.0C91.25 0.0 91.25 58.0 103.33333333333333 58.0C91.25 58.0 91.25 0.0 103.33333333333333 0.0" stroke="#323232" stroke-width="2.0" stroke-dasharray="none" opacity="1.0" fill="#ffffff"/><g id="ProcessOnG1025" transform="matrix(1.0,0.0,0.0,1.0,0.0,6.5)"><text id="ProcessOnText1026" fill="#000000" font-size="18" x="44.2" y="18.45" font-family="微软雅黑" font-weight="normal" font-style="normal" text-decoration="none" family="微软雅黑" text-anchor="middle" size="18">影院最新</text><text id="ProcessOnText1027" fill="#000000" font-size="18" x="44.2" y="40.95" font-family="微软雅黑" font-weight="normal" font-style="normal" text-decoration="none" family="微软雅黑" text-anchor="middle" size="18">观影数据</text></g></g><g id="ProcessOnG1028" transform="matrix(1.0,0.0,0.0,1.0,263.0,180.0)" opacity="1.0"><path id="ProcessOnPath1029" d="M0.0 0.0L275.0 0.0L275.0 152.0L0.0 152.0Z" stroke="#323232" stroke-width="2.0" stroke-dasharray="none" opacity="1.0" fill="#ffffff"/></g><g id="ProcessOnG1030" transform="matrix(1.0,0.0,0.0,1.0,251.00000000000006,176.40740740740742)" opacity="1.0"><path id="ProcessOnPath1031" d="M0.0 0.0L160.0 0.0L160.0 40.0L0.0 40.0Z" stroke="none" stroke-width="0.0" stroke-dasharray="none" opacity="1.0" fill="none"/><g id="ProcessOnG1032" transform="matrix(1.0,0.0,0.0,1.0,0.0,8.75)"><text id="ProcessOnText1033" fill="#000000" font-size="18" x="79.0" y="18.45" font-family="微软雅黑" font-weight="bold" font-style="normal" text-decoration="none" family="微软雅黑" text-anchor="middle" size="18">数据预处理模块</text></g></g><g id="ProcessOnG1034" transform="matrix(1.0,0.0,0.0,1.0,292.0,226.66666666666666)" opacity="1.0"><path id="ProcessOnPath1035" d="M0.0 0.0L90.49999999999926 0.0L90.49999999999926 52.666666666666686L0.0 52.666666666666686Z" stroke="#323232" stroke-width="2.0" stroke-dasharray="none" opacity="1.0" fill="#ffffff"/><g id="ProcessOnG1036" transform="matrix(1.0,0.0,0.0,1.0,10.0,3.833333333333343)"><text id="ProcessOnText1037" fill="#000000" font-size="18" x="34.24999999999963" y="18.45" font-family="微软雅黑" font-weight="normal" font-style="normal" text-decoration="none" family="微软雅黑" text-anchor="middle" size="18">数据</text><text id="ProcessOnText1038" fill="#000000" font-size="18" x="34.24999999999963" y="40.95" font-family="微软雅黑" font-weight="normal" font-style="normal" text-decoration="none" family="微软雅黑" text-anchor="middle" size="18">清洗</text></g></g><g id="ProcessOnG1039" transform="matrix(1.0,0.0,0.0,1.0,409.4444444444444,226.66666666666666)" opacity="1.0"><path id="ProcessOnPath1040" d="M0.0 0.0L120.22222222222223 0.0L120.22222222222223 52.666666666666686L0.0 52.666666666666686Z" stroke="#323232" stroke-width="2.0" stroke-dasharray="none" opacity="1.0" fill="#ffffff"/><g id="ProcessOnG1041" transform="matrix(1.0,0.0,0.0,1.0,10.0,3.833333333333343)"><text id="ProcessOnText1042" fill="#000000" font-size="18" x="49.111111111111114" y="18.45" font-family="微软雅黑" font-weight="normal" font-style="normal" text-decoration="none" family="微软雅黑" text-anchor="middle" size="18">构建</text><text id="ProcessOnText1043" fill="#000000" font-size="18" x="49.111111111111114" y="40.95" font-family="微软雅黑" font-weight="normal" font-style="normal" text-decoration="none" family="微软雅黑" text-anchor="middle" size="18">评分矩阵</text></g></g><g id="ProcessOnG1044"><path id="ProcessOnPath1045" d="M184.0 151.0L238.0 151.0L238.0 253.0L276.7639320225002 253.0" stroke="#323232" stroke-width="2.0" stroke-dasharray="none" fill="none" marker-end="url(#ProcessOnMarker1046)"/></g><g id="ProcessOnG1048"><path id="ProcessOnPath1049" d="M184.0 253.0L238.0 253.0L238.0 253.0L276.7639320225002 253.0" stroke="#323232" stroke-width="2.0" stroke-dasharray="none" fill="none" marker-end="url(#ProcessOnMarker1050)"/></g><g id="ProcessOnG1052"><path id="ProcessOnPath1053" d="M184.0 360.5L238.0 360.5L238.0 253.0L276.7639320225002 253.0" stroke="#323232" stroke-width="2.0" stroke-dasharray="none" fill="none" marker-end="url(#ProcessOnMarker1054)"/></g><g id="ProcessOnG1056"><path id="ProcessOnPath1057" d="M382.49999999999926 253.0L395.97222222222183 253.0L395.97222222222183 253.0L396.97222222222183 253.0" stroke="#323232" stroke-width="2.0" stroke-dasharray="none" fill="none" marker-end="url(#ProcessOnMarker1058)"/></g><g id="ProcessOnG1060"><path id="ProcessOnPath1061" d="M529.666666666667 253.0L561.5000000000002 253.0L561.5000000000002 253.0L578.0972653558335 253.0" stroke="#323232" stroke-width="2.0" stroke-dasharray="none" fill="none" marker-end="url(#ProcessOnMarker1062)"/></g><g id="ProcessOnG1064" transform="matrix(1.0,0.0,0.0,1.0,581.6666666666667,218.0)" opacity="1.0"><path id="ProcessOnPath1065" d="M23.333333333333332 0.0L100.0 0.0L76.66666666666667 70.0L0.0 70.0L23.333333333333332 0.0Z" stroke="#323232" stroke-width="2.0" stroke-dasharray="none" opacity="1.0" fill="#ffffff"/><g id="ProcessOnG1066" transform="matrix(1.0,0.0,0.0,1.0,15.0,8.75)"><text id="ProcessOnText1067" fill="#000000" font-size="21" x="34.0" y="21.525" font-family="微软雅黑" font-weight="normal" font-style="normal" text-decoration="none" family="微软雅黑" text-anchor="middle" size="21">评分</text><text id="ProcessOnText1068" fill="#000000" font-size="21" x="34.0" y="47.775" font-family="微软雅黑" font-weight="normal" font-style="normal" text-decoration="none" family="微软雅黑" text-anchor="middle" size="21">矩阵</text></g></g><g id="ProcessOnG1069" transform="matrix(1.0,0.0,0.0,1.0,708.0,174.5)" opacity="1.0"><path id="ProcessOnPath1070" d="M0.0 0.0L216.0 0.0L216.0 157.0L0.0 157.0Z" stroke="#323232" stroke-width="2.0" stroke-dasharray="none" opacity="1.0" fill="#ffffff"/></g><g id="ProcessOnG1071" transform="matrix(1.0,0.0,0.0,1.0,686.0555555555557,166.5555555555556)" opacity="1.0"><path id="ProcessOnPath1072" d="M0.0 0.0L160.0 0.0L160.0 40.0L0.0 40.0Z" stroke="none" stroke-width="0.0" stroke-dasharray="none" opacity="1.0" fill="none"/><g id="ProcessOnG1073" transform="matrix(1.0,0.0,0.0,1.0,0.0,8.75)"><text id="ProcessOnText1074" fill="#000000" font-size="18" x="79.0" y="18.45" font-family="微软雅黑" font-weight="bold" font-style="normal" text-decoration="none" family="微软雅黑" text-anchor="middle" size="18">模型构造模块</text></g></g><g id="ProcessOnG1075" transform="matrix(1.0,0.0,0.0,1.0,756.5,229.0)" opacity="1.0"><path id="ProcessOnPath1076" d="M0.0 0.0L112.0 0.0L112.0 48.0L0.0 48.0Z" stroke="#323232" stroke-width="2.0" stroke-dasharray="none" opacity="1.0" fill="#ffffff"/><g id="ProcessOnG1077" transform="matrix(1.0,0.0,0.0,1.0,10.0,10.875)"><text id="ProcessOnText1078" fill="#000000" font-size="21" x="45.0" y="21.525" font-family="微软雅黑" font-weight="normal" font-style="normal" text-decoration="none" family="微软雅黑" text-anchor="middle" size="21">模型训练</text></g></g><g id="ProcessOnG1079"><path id="ProcessOnPath1080" d="M670.0000000000001 253.0L713.25 253.0L713.25 253.0L741.2639320225002 253.0" stroke="#323232" stroke-width="2.0" stroke-dasharray="none" fill="none" marker-end="url(#ProcessOnMarker1081)"/></g><g id="ProcessOnG1083"><path id="ProcessOnPath1084" d="M924.0 253.0L946.1361111111112 253.0L946.1361111111112 253.0L953.0361542447224 253.0" stroke="#323232" stroke-width="2.0" stroke-dasharray="none" fill="none" marker-end="url(#ProcessOnMarker1085)"/></g><g id="ProcessOnG1087" transform="matrix(1.0,0.0,0.0,1.0,956.3333333333334,218.0)" opacity="1.0"><path id="ProcessOnPath1088" d="M23.333333333333332 0.0L102.33333333333337 0.0L79.00000000000004 70.0L0.0 70.0L23.333333333333332 0.0Z" stroke="#323232" stroke-width="2.0" stroke-dasharray="none" opacity="1.0" fill="#ffffff"/><g id="ProcessOnG1089" transform="matrix(1.0,0.0,0.0,1.0,15.350000000000005,13.75)"><text id="ProcessOnText1090" fill="#000000" font-size="17" x="34.81666666666668" y="17.425" font-family="微软雅黑" font-weight="normal" font-style="normal" text-decoration="none" family="微软雅黑" text-anchor="middle" size="17">模型及</text><text id="ProcessOnText1091" fill="#000000" font-size="17" x="34.81666666666668" y="38.675" font-family="微软雅黑" font-weight="normal" font-style="normal" text-decoration="none" family="微软雅黑" text-anchor="middle" size="17">模型参数</text></g></g><g id="ProcessOnG1092" transform="matrix(1.0,0.0,0.0,1.0,1089.3333333333333,171.0)" opacity="1.0"><path id="ProcessOnPath1093" d="M0.0 0.0L286.66666666666674 0.0L286.66666666666674 161.16666666666663L0.0 161.16666666666663Z" stroke="#323232" stroke-width="2.0" stroke-dasharray="none" opacity="1.0" fill="#ffffff"/></g><g id="ProcessOnG1094" transform="matrix(1.0,0.0,0.0,1.0,1082.333333333333,167.00000000000003)" opacity="1.0"><path id="ProcessOnPath1095" d="M0.0 0.0L160.0 0.0L160.0 40.0L0.0 40.0Z" stroke="none" stroke-width="0.0" stroke-dasharray="none" opacity="1.0" fill="none"/><g id="ProcessOnG1096" transform="matrix(1.0,0.0,0.0,1.0,0.0,8.75)"><text id="ProcessOnText1097" fill="#000000" font-size="18" x="79.0" y="18.45" font-family="微软雅黑" font-weight="bold" font-style="normal" text-decoration="none" family="微软雅黑" text-anchor="middle" size="18">评分预测模块</text></g></g><g id="ProcessOnG1098" transform="matrix(1.0,0.0,0.0,1.0,1113.333333333333,226.66666666666663)" opacity="1.0"><path id="ProcessOnPath1099" d="M0.0 0.0L129.0 0.0L129.0 52.66666666666674L0.0 52.66666666666674Z" stroke="#323232" stroke-width="2.0" stroke-dasharray="none" opacity="1.0" fill="#ffffff"/><g id="ProcessOnG1100" transform="matrix(1.0,0.0,0.0,1.0,10.0,5.083333333333371)"><text id="ProcessOnText1101" fill="#000000" font-size="17" x="53.5" y="17.425" font-family="微软雅黑" font-weight="normal" font-style="normal" text-decoration="none" family="微软雅黑" text-anchor="middle" size="17">预测并构建候</text><text id="ProcessOnText1102" fill="#000000" font-size="17" x="53.5" y="38.675" font-family="微软雅黑" font-weight="normal" font-style="normal" text-decoration="none" family="微软雅黑" text-anchor="middle" size="17">选推荐列表</text></g></g><g id="ProcessOnG1103" transform="matrix(1.0,0.0,0.0,1.0,1271.9999999999995,228.55555555555554)" opacity="1.0"><path id="ProcessOnPath1104" d="M0.0 0.0L94.66666666666697 0.0L94.66666666666697 49.83333333333337L0.0 49.83333333333337Z" stroke="#323232" stroke-width="2.0" stroke-dasharray="none" opacity="1.0" fill="#ffffff"/><g id="ProcessOnG1105" transform="matrix(1.0,0.0,0.0,1.0,10.0,2.4166666666666856)"><text id="ProcessOnText1106" fill="#000000" font-size="18" x="36.333333333333485" y="18.45" font-family="微软雅黑" font-weight="normal" font-style="normal" text-decoration="none" family="微软雅黑" text-anchor="middle" size="18">规则过滤</text><text id="ProcessOnText1107" fill="#000000" font-size="18" x="36.333333333333485" y="40.95" font-family="微软雅黑" font-weight="normal" font-style="normal" text-decoration="none" family="微软雅黑" text-anchor="middle" size="18">和重排序</text></g></g><g id="ProcessOnG1108"><path id="ProcessOnPath1109" d="M1046.7277777777779 253.0L1080.0305555555556 253.0L1080.0305555555556 252.99999999999997L1098.0972653558333 252.99999999999997" stroke="#323232" stroke-width="2.0" stroke-dasharray="none" fill="none" marker-end="url(#ProcessOnMarker1110)"/></g><g id="ProcessOnG1112"><path id="ProcessOnPath1113" d="M1242.333333333333 252.99999999999997L1257.1666666666663 252.99999999999997L1257.1666666666663 253.47222222222223L1258.1666666666663 253.47222222222223" stroke="#323232" stroke-width="2.0" stroke-dasharray="none" fill="none" marker-end="url(#ProcessOnMarker1114)"/></g><g id="ProcessOnG1116" transform="matrix(1.0,0.0,0.0,1.0,1460.25,216.5)" opacity="1.0"><path id="ProcessOnPath1117" d="M24.333333333333332 0.0L119.0 0.0L94.66666666666667 73.0L0.0 73.0L24.333333333333332 0.0Z" stroke="#323232" stroke-width="2.0" stroke-dasharray="none" opacity="1.0" fill="#ffffff"/><g id="ProcessOnG1118" transform="matrix(1.0,0.0,0.0,1.0,17.849999999999998,25.25)"><text id="ProcessOnText1119" fill="#000000" font-size="18" x="40.65" y="18.45" font-family="微软雅黑" font-weight="normal" font-style="normal" text-decoration="none" family="微软雅黑" text-anchor="middle" size="18">推荐列表</text></g></g><g id="ProcessOnG1120"><path id="ProcessOnPath1121" d="M1366.6666666666665 253.47222222222223L1419.5416666666665 253.47222222222223L1419.5416666666665 253.0L1457.180598689167 253.0" stroke="#323232" stroke-width="2.0" stroke-dasharray="none" fill="none" marker-end="url(#ProcessOnMarker1122)"/></g><g id="ProcessOnG1124"><path id="ProcessOnPath1125" d="M184.0 474.0L337.24999999999966 474.0L337.24999999999966 294.56940131083314" stroke="#323232" stroke-width="2.0" stroke-dasharray="none" fill="none" marker-end="url(#ProcessOnMarker1126)"/></g><g id="ProcessOnG1128"><path id="ProcessOnPath1129" d="M469.55555555555554 279.33333333333337L469.55555555555554 340.1666666666667L469.5555555555555 340.1666666666667L469.5555555555555 385.7639320225002" stroke="#323232" stroke-width="2.0" stroke-dasharray="none" fill="none" marker-end="url(#ProcessOnMarker1130)"/></g><g id="ProcessOnG1132" transform="matrix(1.0,0.0,0.0,1.0,409.4444444444444,401.0)" opacity="1.0"><path id="ProcessOnPath1133" d="M24.666666666666668 0.0L120.22222222222217 0.0L95.5555555555555 74.0L0.0 74.0L24.666666666666668 0.0Z" stroke="#323232" stroke-width="2.0" stroke-dasharray="none" opacity="1.0" fill="#ffffff"/><g id="ProcessOnG1134" transform="matrix(1.0,0.0,0.0,1.0,18.033333333333324,14.5)"><text id="ProcessOnText1135" fill="#000000" font-size="18" x="41.077777777777754" y="18.45" font-family="微软雅黑" font-weight="normal" font-style="normal" text-decoration="none" family="微软雅黑" text-anchor="middle" size="18">增量</text><text id="ProcessOnText1136" fill="#000000" font-size="18" x="41.077777777777754" y="40.95" font-family="微软雅黑" font-weight="normal" font-style="normal" text-decoration="none" family="微软雅黑" text-anchor="middle" size="18">评分矩阵</text></g></g><g id="ProcessOnG1137" transform="matrix(1.0,0.0,0.0,1.0,693.6666666666644,379.0)" opacity="1.0"><path id="ProcessOnPath1138" d="M0.0 0.0L227.66666666666902 0.0L227.66666666666902 211.66666666666663L0.0 211.66666666666663Z" stroke="#323232" stroke-width="2.0" stroke-dasharray="none" opacity="1.0" fill="#ffffff"/></g><g id="ProcessOnG1139" transform="matrix(1.0,0.0,0.0,1.0,756.5,414.75)" opacity="1.0"><path id="ProcessOnPath1140" d="M0.0 0.0L112.0 0.0L112.0 46.5L0.0 46.5Z" stroke="#323232" stroke-width="2.0" stroke-dasharray="none" opacity="1.0" fill="#ffffff"/><g id="ProcessOnG1141" transform="matrix(1.0,0.0,0.0,1.0,10.0,0.75)"><text id="ProcessOnText1142" fill="#000000" font-size="18" x="45.0" y="18.45" font-family="微软雅黑" font-weight="normal" font-style="normal" text-decoration="none" family="微软雅黑" text-anchor="middle" size="18">模型增量</text><text id="ProcessOnText1143" fill="#000000" font-size="18" x="45.0" y="40.95" font-family="微软雅黑" font-weight="normal" font-style="normal" text-decoration="none" family="微软雅黑" text-anchor="middle" size="18">更新</text></g></g><g id="ProcessOnG1144" transform="matrix(1.0,0.0,0.0,1.0,671.1666666666671,371.66666666666663)" opacity="1.0"><path id="ProcessOnPath1145" d="M0.0 0.0L160.0 0.0L160.0 40.0L0.0 40.0Z" stroke="none" stroke-width="0.0" stroke-dasharray="none" opacity="1.0" fill="none"/><g id="ProcessOnG1146" transform="matrix(1.0,0.0,0.0,1.0,0.0,8.75)"><text id="ProcessOnText1147" fill="#000000" font-size="18" x="79.0" y="18.45" font-family="微软雅黑" font-weight="bold" font-style="normal" text-decoration="none" family="微软雅黑" text-anchor="middle" size="18">周期反馈模块</text></g></g><g id="ProcessOnG1148"><path id="ProcessOnPath1149" d="M516.88441890166 438.0L636.69220945083 438.0L636.69220945083 438.0L741.2639320225002 438.0" stroke="#323232" stroke-width="2.0" stroke-dasharray="none" fill="none" marker-end="url(#ProcessOnMarker1150)"/></g><g id="ProcessOnG1152" transform="matrix(1.0,0.0,0.0,1.0,1115.262345679012,403.0)" opacity="1.0"><path id="ProcessOnPath1153" d="M23.333333333333332 0.0L125.14197530864203 0.0L101.8086419753087 70.0L0.0 70.0L23.333333333333332 0.0Z" stroke="#323232" stroke-width="2.0" stroke-dasharray="none" opacity="1.0" fill="#ffffff"/><g id="ProcessOnG1154" transform="matrix(1.0,0.0,0.0,1.0,18.771296296296303,1.25)"><text id="ProcessOnText1155" fill="#000000" font-size="18" x="42.79969135802471" y="18.45" font-family="微软雅黑" font-weight="normal" font-style="normal" text-decoration="none" family="微软雅黑" text-anchor="middle" size="18">模型及</text><text id="ProcessOnText1156" fill="#000000" font-size="18" x="42.79969135802471" y="40.95" font-family="微软雅黑" font-weight="normal" font-style="normal" text-decoration="none" family="微软雅黑" text-anchor="middle" size="18">更新后的</text><text id="ProcessOnText1157" fill="#000000" font-size="18" x="42.79969135802471" y="63.45" font-family="微软雅黑" font-weight="normal" font-style="normal" text-decoration="none" family="微软雅黑" text-anchor="middle" size="18">参数</text></g></g><g id="ProcessOnG1158"><path id="ProcessOnPath1159" d="M1177.833333333333 403.0L1177.833333333333 341.1666666666667L1177.8333333333335 341.1666666666667L1177.8333333333335 294.56940131083314" stroke="#323232" stroke-width="2.0" stroke-dasharray="none" fill="none" marker-end="url(#ProcessOnMarker1160)"/></g><g id="ProcessOnG1162" transform="matrix(1.0,0.0,0.0,1.0,756.5,514.0)" opacity="1.0"><path id="ProcessOnPath1163" d="M0.0 0.0L112.0 0.0L112.0 47.0L0.0 47.0Z" stroke="#323232" stroke-width="2.0" stroke-dasharray="none" opacity="1.0" fill="#ffffff"/><g id="ProcessOnG1164" transform="matrix(1.0,0.0,0.0,1.0,10.0,1.0)"><text id="ProcessOnText1165" fill="#000000" font-size="18" x="45.0" y="18.45" font-family="微软雅黑" font-weight="normal" font-style="normal" text-decoration="none" family="微软雅黑" text-anchor="middle" size="18">推荐结果</text><text id="ProcessOnText1166" fill="#000000" font-size="18" x="45.0" y="40.95" font-family="微软雅黑" font-weight="normal" font-style="normal" text-decoration="none" family="微软雅黑" text-anchor="middle" size="18">评估</text></g></g><g id="ProcessOnG1167"><path id="ProcessOnPath1168" d="M127.5 503.0L127.5 537.5L741.2639320225002 537.5" stroke="#323232" stroke-width="2.0" stroke-dasharray="none" fill="none" marker-end="url(#ProcessOnMarker1169)"/></g><g id="ProcessOnG1171"><path id="ProcessOnPath1172" d="M1519.75 289.5L1519.75 615.0L812.5 615.0L812.5 576.2360679774998" stroke="#323232" stroke-width="2.0" stroke-dasharray="none" fill="none" marker-end="url(#ProcessOnMarker1173)"/></g><g id="ProcessOnG1175"><path id="ProcessOnPath1176" d="M1007.5000000000002 288.0L1007.5000000000002 351.375L812.5 351.375L812.5 399.5139320225002" stroke="#323232" stroke-width="2.0" stroke-dasharray="none" fill="none" marker-end="url(#ProcessOnMarker1177)"/></g><g id="ProcessOnG1179"><path id="ProcessOnPath1180" d="M868.5 438.0L997.7682281295631 438.0L997.7682281295631 438.0L1111.8003882816265 438.0" stroke="#323232" stroke-width="2.0" stroke-dasharray="none" fill="none" marker-end="url(#ProcessOnMarker1181)"/></g><g id="ProcessOnG1183"><path id="ProcessOnPath1184" d="M812.5 514.0L812.5 487.625L812.5 487.625L812.5 476.4860679774998" stroke="#323232" stroke-width="2.0" stroke-dasharray="none" fill="none" marker-end="url(#ProcessOnMarker1185)"/></g><g id="ProcessOnG1187"><path id="ProcessOnPath1188" d="M868.5 253.0L918.3861111111112 253.0L918.3861111111112 253.0L953.0361542447224 253.0" stroke="#323232" stroke-width="2.0" stroke-dasharray="none" fill="none" marker-end="url(#ProcessOnMarker1189)"/></g><g id="ProcessOnG1191" transform="matrix(1.0,0.0,0.0,1.0,39.333333333333336,21.0)" opacity="1.0"><path id="ProcessOnPath1192" d="M0.0 0.0L160.0 0.0L160.0 40.0L0.0 40.0Z" stroke="none" stroke-width="0.0" stroke-dasharray="none" opacity="1.0" fill="none"/><g id="ProcessOnG1193" transform="matrix(1.0,0.0,0.0,1.0,0.0,7.5)"><text id="ProcessOnText1194" fill="#000000" font-size="20" x="79.0" y="20.5" font-family="微软雅黑" font-weight="bold" font-style="normal" text-decoration="none" family="微软雅黑" text-anchor="middle" size="20">数据输入</text></g></g><g id="ProcessOnG1195" transform="matrix(1.0,0.0,0.0,1.0,1438.9999999999998,21.0)" opacity="1.0"><path id="ProcessOnPath1196" d="M0.0 0.0L160.0 0.0L160.0 40.0L0.0 40.0Z" stroke="none" stroke-width="0.0" stroke-dasharray="none" opacity="1.0" fill="none"/><g id="ProcessOnG1197" transform="matrix(1.0,0.0,0.0,1.0,0.0,7.5)"><text id="ProcessOnText1198" fill="#000000" font-size="20" x="79.0" y="20.5" font-family="微软雅黑" font-weight="bold" font-style="normal" text-decoration="none" family="微软雅黑" text-anchor="middle" size="20">数据输出</text></g></g><g id="ProcessOnG1199"><path id="ProcessOnPath1200" d="M469.55555555555554 279.33333333333337L469.55555555555554 309.33333333333337L469.55555555555554 309.33333333333337L469.55555555555554 294.56940131083314" stroke="#323232" stroke-width="2.0" stroke-dasharray="none" fill="none" marker-end="url(#ProcessOnMarker1201)"/></g></g></g></svg>